<?xml version="1.0" encoding="UTF-8"?>
<svg version="1.1" xmlns="http://www.w3.org/2000/svg" width="256" height="256">
<path d="M0 0 C2.89335415 3.39220831 3.13395158 5.81642553 3.07598877 10.2701416 C2.51581727 16.33950963 0.70501328 22.18939235 -0.9140625 28.046875 C-1.3036348 29.47924603 -1.69281867 30.91172276 -2.08163452 32.34429932 C-2.8957853 35.3319173 -3.71914903 38.31681621 -4.54833984 41.30029297 C-5.60644764 45.11284497 -6.63400844 48.93290713 -7.65398598 52.75580978 C-8.44738943 55.71112913 -9.26039291 58.66079204 -10.07896042 61.60923004 C-10.46613619 63.01548832 -10.84646126 64.42365241 -11.21959305 65.83370209 C-14.49998669 78.1734908 -14.49998669 78.1734908 -18.04711914 81.42993164 C-21.45444585 83.26908808 -24.13033652 84.07363314 -27.95703125 84.63671875 C-29.25116943 84.83628174 -30.54530762 85.03584473 -31.87866211 85.24145508 C-33.25235401 85.43243311 -34.62613502 85.62277108 -36 85.8125 C-37.39939029 86.02024954 -38.79856106 86.229483 -40.19750977 86.44018555 C-49.83614629 87.87315242 -59.49448994 89.12391086 -69.1875 90.125 C-69.40011475 90.99938721 -69.61272949 91.87377441 -69.83178711 92.7746582 C-72.66566118 104.27917717 -75.73554757 115.71431938 -78.87866211 127.13793945 C-79.46470701 129.27308706 -80.04733208 131.40917596 -80.62670898 133.54614258 C-81.47428808 136.67213966 -82.33168747 139.79529156 -83.19140625 142.91796875 C-83.57589684 144.34607124 -83.57589684 144.34607124 -83.96815491 145.80302429 C-87.20314099 157.43952215 -87.20314099 157.43952215 -92.1875 161.125 C-95.10400391 161.89282227 -95.10400391 161.89282227 -98.6640625 162.44140625 C-99.96786865 162.64741455 -101.2716748 162.85342285 -102.61499023 163.06567383 C-104.01408792 163.27343623 -105.41325923 163.48070343 -106.8125 163.6875 C-108.22545475 163.90511095 -109.63829682 164.12345479 -111.05102539 164.3425293 C-120.73911417 165.82917696 -130.43777591 167.11670947 -140.1875 168.125 C-140.39503906 169.04982178 -140.60257812 169.97464355 -140.81640625 170.92749023 C-143.63635615 183.29186321 -146.90326859 195.52684197 -150.25097656 207.75756836 C-151.19379252 211.21054578 -152.1242759 214.66670936 -153.0546875 218.12304688 C-153.66070538 220.34395559 -154.26745011 222.56466614 -154.875 224.78515625 C-155.14803955 225.80609879 -155.4210791 226.82704132 -155.70239258 227.87892151 C-160.06433609 243.64894274 -160.06433609 243.64894274 -165.8125 247 C-181.95580537 255.54161791 -210.0439792 256.77100389 -227.6953125 253.46875 C-239.63045478 249.61226949 -246.34802822 241.29201398 -252.0625 230.625 C-256.01424035 218.77087481 -252.74123766 205.07483623 -249.34765625 193.56640625 C-248.94122477 192.12572249 -248.53685507 190.68445573 -248.13438416 189.24266052 C-247.07694851 185.47400691 -245.99401593 181.71319775 -244.90441895 177.95373535 C-243.83297022 174.24333699 -242.7828436 170.52694259 -241.73242188 166.81054688 C-241.31466249 165.3333761 -240.89685647 163.85621852 -240.47900391 162.3790741 C-240.16861679 161.2816945 -240.16861679 161.2816945 -239.85195923 160.16214561 C-239.22054416 157.93395293 -238.58617351 155.70661938 -237.95117188 153.47944641 C-235.03591217 143.23843409 -232.24358248 132.96943795 -229.53515625 122.671875 C-229.34974463 121.96704357 -229.164333 121.26221214 -228.97330284 120.53602219 C-228.23919291 117.7437313 -227.50574486 114.95126767 -226.77314281 112.15858078 C-224.06174352 101.82606206 -221.30045306 91.50736988 -218.484375 81.20288086 C-217.86002355 78.90670276 -217.24204588 76.60878372 -216.62988281 74.30932617 C-211.33792824 54.45343708 -206.52714397 37.55645068 -187.97265625 26.44921875 C-178.68095966 22.03142752 -168.9425454 20.8261421 -158.87890625 19.375 C-157.14204377 19.11833341 -155.40529088 18.8609243 -153.66864014 18.60282898 C-148.99931407 17.9109284 -144.32859352 17.22892484 -139.65750504 16.54903793 C-134.78482578 15.83839399 -129.91332858 15.11974189 -125.04174805 14.40161133 C-119.05005446 13.51875865 -113.05825341 12.63667389 -107.06587219 11.75849915 C-94.70785271 9.94640356 -82.35535333 8.10112467 -70.00734138 6.2220726 C-64.91913952 5.44844627 -59.83022704 4.67950463 -54.7413702 3.91020012 C-50.74580287 3.30571971 -46.75072947 2.69828834 -42.75662231 2.08422852 C-39.02558482 1.51076469 -35.29336647 0.94570356 -31.56012726 0.3867588 C-29.57502562 0.08730422 -27.59127659 -0.2210759 -25.60760498 -0.52986145 C-5.88316859 -3.46068741 -5.88316859 -3.46068741 0 0 Z " fill="#229782" transform="translate(253.1875,1.875)"/>
<path d="M0 0 C2.89335415 3.39220831 3.13395158 5.81642553 3.07598877 10.2701416 C2.51581727 16.33950963 0.70501328 22.18939235 -0.9140625 28.046875 C-1.3036348 29.47924603 -1.69281867 30.91172276 -2.08163452 32.34429932 C-2.8957853 35.3319173 -3.71914903 38.31681621 -4.54833984 41.30029297 C-5.60644764 45.11284497 -6.63400844 48.93290713 -7.65398598 52.75580978 C-8.44738943 55.71112913 -9.26039291 58.66079204 -10.07896042 61.60923004 C-10.46613619 63.01548832 -10.84646126 64.42365241 -11.21959305 65.83370209 C-14.4998489 78.17297251 -14.4998489 78.17297251 -18.03833008 81.42993164 C-21.49318832 83.28953942 -24.21754757 84.07804432 -28.09765625 84.63671875 C-28.7464122 84.73588089 -29.39516815 84.83504303 -30.06358337 84.93721008 C-32.123468 85.24773731 -34.18601574 85.53066206 -36.25 85.8125 C-37.6063916 86.01183101 -38.96251583 86.21299026 -40.31835938 86.41601562 C-42.99600744 86.81443009 -45.67502323 87.20003986 -48.35595703 87.57568359 C-51.86885246 88.07931649 -55.36857651 88.63653551 -58.87109375 89.20703125 C-64.23201398 90.04453301 -69.56226603 90.48460277 -74.97265625 90.85644531 C-80.25398976 91.29762597 -85.45911868 92.14922314 -90.6875 93 C-92.95816959 93.36040813 -95.22900579 93.71976806 -97.5 94.078125 C-98.62019531 94.25537109 -99.74039063 94.43261719 -100.89453125 94.61523438 C-106.64090379 95.50479738 -112.40007412 96.30436828 -118.16210938 97.08544922 C-122.09851073 97.63145048 -125.98532447 98.26758629 -129.87573242 99.08178711 C-134.84146883 100.08495695 -139.81309894 100.84739186 -144.83203125 101.52734375 C-145.72250656 101.6505751 -146.61298187 101.77380646 -147.53044128 101.90077209 C-150.35324542 102.29085062 -153.17658935 102.67683856 -156 103.0625 C-157.84834719 103.31676741 -159.69665478 103.57132293 -161.54492188 103.82617188 C-162.45880676 103.95216766 -163.37269165 104.07816345 -164.31427002 104.20797729 C-168.00432617 104.71709226 -171.69431598 105.2266813 -175.38415527 105.73736572 C-177.28436116 106.0001179 -179.18467403 106.26209725 -181.08508301 106.52337646 C-183.92309699 106.9144912 -186.76043261 107.3102285 -189.59765625 107.70703125 C-190.44955032 107.8236058 -191.3014444 107.94018036 -192.17915344 108.06028748 C-203.75769588 109.69182477 -215.16201536 112.18133715 -224.1875 120.125 C-225.84564191 122.42378764 -227.11059581 124.6318629 -228.28515625 127.20703125 C-229.1875 129.125 -229.1875 129.125 -231.1875 131.125 C-229.63754939 122.46187887 -227.38156759 113.99897465 -225.08203125 105.51171875 C-224.88298376 104.77586863 -224.68393627 104.0400185 -224.47885704 103.28186989 C-223.42470207 99.38830936 -222.36580651 95.49607113 -221.3034668 91.60473633 C-220.43435183 88.41765648 -219.57467825 85.22826345 -218.72338867 82.03637695 C-217.68511724 78.14342285 -216.63074386 74.25515809 -215.56522179 70.36957741 C-215.16638531 68.90532333 -214.77285412 67.43961161 -214.38520241 65.9723568 C-209.91504367 49.09472703 -203.38307632 35.67432442 -187.97265625 26.44921875 C-178.68095966 22.03142752 -168.9425454 20.8261421 -158.87890625 19.375 C-157.14204377 19.11833341 -155.40529088 18.8609243 -153.66864014 18.60282898 C-148.99931407 17.9109284 -144.32859352 17.22892484 -139.65750504 16.54903793 C-134.78482578 15.83839399 -129.91332858 15.11974189 -125.04174805 14.40161133 C-119.05005446 13.51875865 -113.05825341 12.63667389 -107.06587219 11.75849915 C-94.70785271 9.94640356 -82.35535333 8.10112467 -70.00734138 6.2220726 C-64.91913952 5.44844627 -59.83022704 4.67950463 -54.7413702 3.91020012 C-50.74580287 3.30571971 -46.75072947 2.69828834 -42.75662231 2.08422852 C-39.02558482 1.51076469 -35.29336647 0.94570356 -31.56012726 0.3867588 C-29.57502562 0.08730422 -27.59127659 -0.2210759 -25.60760498 -0.52986145 C-5.88316859 -3.46068741 -5.88316859 -3.46068741 0 0 Z " fill="#84E8A9" transform="translate(253.1875,1.875)"/>
<path d="M0 0 C-2.98708171 13.31083498 -6.46229552 26.47578755 -10.06347656 39.63256836 C-11.00629252 43.08554578 -11.9367759 46.54170936 -12.8671875 49.99804688 C-13.47320538 52.21895559 -14.07995011 54.43966614 -14.6875 56.66015625 C-14.96053955 57.68109879 -15.2335791 58.70204132 -15.51489258 59.75392151 C-19.87683609 75.52394274 -19.87683609 75.52394274 -25.625 78.875 C-41.76830537 87.41661791 -69.8564792 88.64600389 -87.5078125 85.34375 C-99.44295478 81.48726949 -106.16052822 73.16701398 -111.875 62.5 C-114.79062171 53.66478271 -114.41259828 42.80221215 -110.4375 34.4375 C-102.54845931 21.00778422 -91.88469114 14.15093887 -77 10 C-72.89567044 9.14530519 -68.78004351 8.54995983 -64.625 8 C-62.90579346 7.75854248 -62.90579346 7.75854248 -61.15185547 7.51220703 C-57.43628176 6.99458226 -53.71861924 6.49524556 -50 6 C-48.69289063 5.82436523 -47.38578125 5.64873047 -46.0390625 5.46777344 C-40.84029694 4.76944717 -35.6413832 4.07271049 -30.43994141 3.39453125 C-23.61408369 2.50253172 -16.81876904 1.51917507 -10.03076172 0.37158203 C-6.66239809 -0.04139118 -3.39026954 -0.05992499 0 0 Z " fill="#0A5650" transform="translate(113,170)"/>
<path d="M0 0 C1.17435362 5.69224907 0.66895743 9.85818066 -0.8125 15.4375 C-0.99103516 16.14970703 -1.16957031 16.86191406 -1.35351562 17.59570312 C-2.08099352 20.4872308 -2.82703777 23.37190275 -3.61865234 26.24658203 C-4.91766294 30.17544525 -4.91766294 30.17544525 -4 34 C-4.66 34 -5.32 34 -6 34 C-6.12375 34.78375 -6.2475 35.5675 -6.375 36.375 C-8.30810811 47.58702703 -8.30810811 47.58702703 -9.625 52.1796875 C-10.21372303 54.08795853 -10.21372303 54.08795853 -9 56 C-9.66 56 -10.32 56 -11 56 C-10.690625 56.86625 -10.690625 56.86625 -10.375 57.75 C-9.91020077 60.53879535 -10.70116889 61.56469167 -12 64 C-11.67 64.66 -11.34 65.32 -11 66 C-11.66 66 -12.32 66 -13 66 C-13.144375 66.78375 -13.28875 67.5675 -13.4375 68.375 C-14 71 -14 71 -15 73 C-14.34 73.33 -13.68 73.66 -13 74 C-13.66 74 -14.32 74 -15 74 C-14.979375 74.7425 -14.95875 75.485 -14.9375 76.25 C-15.04059041 80.78597786 -15.04059041 80.78597786 -16 83 C-19.93299346 85.87664113 -23.40328396 86.62043321 -28.1875 87.28125 C-28.87857849 87.37982803 -29.56965698 87.47840607 -30.28167725 87.57997131 C-32.51982372 87.89683809 -34.75977339 88.198229 -37 88.5 C-38.54606321 88.71750055 -40.09196168 88.93617531 -41.63769531 89.15600586 C-48.22778064 90.08854793 -54.82289648 90.98033122 -61.421875 91.84765625 C-82.68733203 94.50324266 -82.68733203 94.50324266 -101 105 C-102.65814191 107.29878764 -103.92309581 109.5068629 -105.09765625 112.08203125 C-106 114 -106 114 -108 116 C-106.45004939 107.33687887 -104.19406759 98.87397465 -101.89453125 90.38671875 C-101.69548376 89.65086863 -101.49643627 88.9150185 -101.29135704 88.15686989 C-100.23720207 84.26330936 -99.17830651 80.37107113 -98.1159668 76.47973633 C-97.24685183 73.29265648 -96.38717825 70.10326345 -95.53588867 66.91137695 C-94.49761724 63.01842285 -93.44324386 59.13015809 -92.37772179 55.24457741 C-91.97888531 53.78032333 -91.58535412 52.31461161 -91.19770241 50.8473568 C-86.72754367 33.96972703 -80.19557632 20.54932442 -64.78515625 11.32421875 C-57.56245439 7.89014311 -50.1763974 6.33106345 -42.3046875 5.17578125 C-41.31300568 5.02465378 -40.32132385 4.87352631 -39.29959106 4.71781921 C-37.21771913 4.40237134 -35.1352557 4.09080486 -33.05224609 3.78295898 C-29.87568011 3.31260071 -26.70149638 2.8281471 -23.52734375 2.34179688 C-21.49491737 2.0356227 -19.4623691 1.7302564 -17.4296875 1.42578125 C-16.01694046 1.21022331 -16.01694046 1.21022331 -14.57565308 0.99031067 C-9.6566395 0.27036217 -4.97122553 -0.15553723 0 0 Z " fill="#94EFD9" transform="translate(130,17)"/>
<path d="M0 0 C-3.90586207 9.25072596 -8.12457153 18.3105329 -12.65234375 27.2734375 C-14.23306927 30.47154305 -15.61891083 33.71169245 -17 37 C-18.4395783 39.93913903 -19.92141857 42.8496703 -21.4375 45.75 C-22.71167185 48.40027746 -23.81048631 51.01390056 -24.875 53.75 C-26.53705943 57.96763201 -28.4365791 61.97620255 -30.50390625 66.0078125 C-32.84577364 70.69154728 -35.03575583 75.44662471 -37.23339844 80.19946289 C-37.72694824 81.25895142 -37.72694824 81.25895142 -38.23046875 82.33984375 C-38.52332764 82.97269287 -38.81618652 83.60554199 -39.11791992 84.25756836 C-40 86 -40 86 -42 89 C-44.47246515 89.59521608 -46.77086149 90.00311187 -49.28125 90.31640625 C-50.0093689 90.41839828 -50.73748779 90.52039032 -51.4876709 90.62547302 C-53.82359579 90.95033499 -56.16146285 91.25706529 -58.5 91.5625 C-61.55275598 91.97561404 -64.60451617 92.39581779 -67.65625 92.81640625 C-68.75690292 92.96574615 -68.75690292 92.96574615 -69.87979126 93.11810303 C-74.65481573 93.77638648 -79.36646744 94.58755521 -84.07373047 95.63598633 C-86.73093349 96.13812697 -89.30696806 96.14173852 -92 96 C-91.67 95.401875 -91.34 94.80375 -91 94.1875 C-89.79212012 91.94613529 -89.79212012 91.94613529 -90 89 C-89.71601981 87.57734194 -89.40040675 86.16082236 -89.0625 84.75 C-88.38006011 81.82457585 -87.88017736 79.05639672 -87.5 76.0625 C-87 73 -87 73 -85 71 C-85.33 70.34 -85.66 69.68 -86 69 C-85.69235564 65.73896976 -85.34082514 62.81682988 -84.07421875 59.78125 C-82.69289372 56.20487394 -81.9183256 52.55182911 -81.125 48.8125 C-80.77760468 47.20697477 -80.42994039 45.60150772 -80.08203125 43.99609375 C-79.90494629 43.17351074 -79.72786133 42.35092773 -79.54541016 41.50341797 C-79.00683376 39.03136677 -78.45027075 36.56412394 -77.88671875 34.09765625 C-77.7067334 33.30576904 -77.52674805 32.51388184 -77.34130859 31.69799805 C-76.99915797 30.19496793 -76.6545916 28.69248482 -76.30712891 27.19067383 C-75.02402272 21.50636837 -74 15.84840644 -74 10 C-65.2382819 8.69104021 -56.47587978 7.38678688 -47.71257591 6.08848572 C-43.64316103 5.48544373 -39.57399745 4.88080207 -35.50537109 4.27246094 C-31.57668596 3.68510469 -27.64738989 3.10200761 -23.71763992 2.52182007 C-22.22076655 2.30006517 -20.72411702 2.07679361 -19.22770309 1.85195923 C-17.12682673 1.53657359 -15.0252089 1.22665935 -12.92333984 0.91796875 C-11.72865082 0.74031982 -10.53396179 0.5626709 -9.30307007 0.37963867 C-6.16643725 0.01912948 -3.15367749 -0.07047743 0 0 Z " fill="#6CE8BC" transform="translate(204,6)"/>
<path d="M0 0 C-0.495 0.70125 -0.99 1.4025 -1.5 2.125 C-3.1936681 5.37119719 -3.25162315 7.39340156 -3 11 C-3.66 11 -4.32 11 -5 11 C-5.68707555 13.49064888 -6 15.37886292 -6 18 C-7.38244343 29.12460358 -7.38244343 29.12460358 -9.6875 34.0625 C-11.38457434 36.9724847 -11.38457434 36.9724847 -10 40 C-10.66 40.66 -11.32 41.32 -12 42 C-12 42.99 -12 43.98 -12 45 C-12.72123187 46.88484723 -13.44392597 48.76915453 -14.17578125 50.64990234 C-15.67968685 54.93799336 -16.54732127 59.37568464 -17.5 63.8125 C-17.93061457 65.7607881 -18.36288833 67.70871027 -18.796875 69.65625 C-19.00248047 70.57921875 -19.20808594 71.5021875 -19.41992188 72.453125 C-22.35948361 85.35948361 -22.35948361 85.35948361 -24 87 C-25.39303605 87.13657216 -26.79006121 87.23271149 -28.1875 87.3125 C-39.32482952 88.37850154 -50.46239266 91.48573601 -59 99 C-60.65814191 101.29878764 -61.92309581 103.5068629 -63.09765625 106.08203125 C-64 108 -64 108 -66 110 C-64.45004939 101.33687887 -62.19406759 92.87397465 -59.89453125 84.38671875 C-59.69548376 83.65086863 -59.49643627 82.9150185 -59.29135704 82.15686989 C-58.23720207 78.26330936 -57.17830651 74.37107113 -56.1159668 70.47973633 C-55.24685183 67.29265648 -54.38717825 64.10326345 -53.53588867 60.91137695 C-52.49761724 57.01842285 -51.44324386 53.13015809 -50.37772179 49.24457741 C-49.97888531 47.78032333 -49.58535412 46.31461161 -49.19770241 44.8473568 C-45.05540732 29.20761623 -39.18974894 15.65371063 -25.0625 6.6875 C-17.23944965 2.26525341 -9.04464869 -0.26601908 0 0 Z " fill="#7DEBDA" transform="translate(88,23)"/>
<path d="M0 0 C-0.33 0.66 -0.66 1.32 -1 2 C-0.34 2.99 0.32 3.98 1 5 C0.34 5.33 -0.32 5.66 -1 6 C-0.54658132 7.27259511 -0.08704773 8.54301243 0.375 9.8125 C0.63023438 10.52019531 0.88546875 11.22789063 1.1484375 11.95703125 C2.0265769 14.24773359 2.0265769 14.24773359 4 17 C3.625 19.1875 3.625 19.1875 3 21 C3.66 21 4.32 21 5 21 C4.125 26.75 4.125 26.75 3 29 C3.66 29.33 4.32 29.66 5 30 C5 30.66 5 31.32 5 32 C5.66 31.01 6.32 30.02 7 29 C7.66 29.33 8.32 29.66 9 30 C9 30.66 9 31.32 9 32 C9.66 32.66 10.32 33.32 11 34 C10.34 34.99 9.68 35.98 9 37 C8.01 37 7.02 37 6 37 C5.01 37.495 5.01 37.495 4 38 C4.515625 38.78375 5.03125 39.5675 5.5625 40.375 C6.036875 41.24125 6.51125 42.1075 7 43 C6.505 43.99 6.505 43.99 6 45 C5.67 44.67 5.34 44.34 5 44 C4.505 44.99 4.505 44.99 4 46 C3.34 46 2.68 46 2 46 C2.52268466 48.76276177 3.10869587 51.3260876 4 54 C11.52660853 52.95063485 11.52660853 52.95063485 17.3125 48.375 C17.869375 47.59125 18.42625 46.8075 19 46 C20.32 46.66 21.64 47.32 23 48 C23 49.32 23 50.64 23 52 C24.91666921 54.25065102 24.91666921 54.25065102 27 56 C25.515 56.495 25.515 56.495 24 57 C24.33 57.99 24.66 58.98 25 60 C20.98543194 63.78343064 17.99913351 64.65829807 12.56640625 65.30859375 C11.49482521 65.44878685 11.49482521 65.44878685 10.40159607 65.59181213 C8.12354838 65.88929101 5.84376989 66.16591449 3.5625 66.4375 C-12.93276827 68.40407178 -29.1986208 71.13368222 -40.94140625 84.15234375 C-43.36175871 87.28422151 -45.2871361 90.43219132 -47 94 C-48.46875338 91.06249325 -47.46667882 89.3634422 -46.60058594 86.22436523 C-46.2698407 85.0122789 -45.93909546 83.80019257 -45.59832764 82.55137634 C-45.22723073 81.22038728 -44.85590738 79.88946133 -44.484375 78.55859375 C-44.1084306 77.19311102 -43.73305211 75.82747237 -43.35821533 74.46168518 C-42.56886982 71.59130979 -41.77481297 68.7222954 -40.97705078 65.85424805 C-39.96074794 62.20026506 -38.95267924 58.54408053 -37.94778061 54.88694668 C-37.1709201 52.06112913 -36.39127903 49.23608514 -35.61066437 46.41130257 C-35.23868101 45.06519039 -34.86714525 43.71895444 -34.49608612 42.3725872 C-26.93026359 14.96315828 -26.93026359 14.96315828 -19 8 C-17.9171875 6.9790625 -17.9171875 6.9790625 -16.8125 5.9375 C-11.6926771 2.41051089 -6.24403961 0 0 0 Z M1 55 C1 55.66 1 56.32 1 57 C1.66 57 2.32 57 3 57 C3 56.34 3 55.68 3 55 C2.34 55 1.68 55 1 55 Z " fill="#398F80" transform="translate(50,112)"/>
<path d="M0 0 C3.05270463 0.15811388 3.05270463 0.15811388 6 -1 C7.1328125 0.4765625 7.1328125 0.4765625 8 3 C7.43173797 5.92332735 6.76675644 8.55433561 5.875 11.375 C5.66101563 12.1175 5.44703125 12.86 5.2265625 13.625 C3.19511382 20.30988345 0.92360842 25.21132397 -5.390625 28.73046875 C-11.63184544 31.58284802 -17.98397041 32.48551086 -24.75 33.3125 C-26.01827637 33.47492188 -27.28655273 33.63734375 -28.59326172 33.8046875 C-63.44157927 37.9761446 -63.44157927 37.9761446 -77.8125 27.8125 C-84.91577126 21.85286812 -88.52538145 14.80219923 -91 6 C-82.1946443 5.06460976 -73.37513424 4.40070074 -64.54492188 3.75 C-59.66531842 3.383672 -54.7986247 3.00185745 -49.9375 2.4375 C-46.60879174 2.06764353 -43.43300767 1.98100286 -40.08984375 2.02734375 C-36.03787229 1.9743273 -32.02418638 1.44442603 -28 1 C-26.27096171 0.83200674 -24.54179597 0.66531965 -22.8125 0.5 C-19.95482206 0.21869733 -17.15411582 -0.12903318 -14.3125 -0.5625 C-9.36312599 -1.21619091 -4.81712829 -1.37632237 0 0 Z " fill="#229681" transform="translate(91,221)"/>
<path d="M0 0 C1.196099 4.1863465 0.64940708 6.05974975 -1 10 C-1.20025275 11.32870403 -1.36455766 12.66313392 -1.5 14 C-1.93125987 18.0815666 -3.16934743 21.33869485 -5 25 C-4.814375 25.5775 -4.62875 26.155 -4.4375 26.75 C-3.81915637 29.93005296 -4.95375235 31.91632272 -6 35 C-6.57301324 38.09017854 -7.06227179 41.18600058 -7.53515625 44.29296875 C-8 47 -8 47 -9 50 C-9.5361321 51.97507732 -10.05518981 53.95482392 -10.5625 55.9375 C-10.83191406 56.97777344 -11.10132813 58.01804688 -11.37890625 59.08984375 C-12.13914812 62.15603398 -12.13914812 62.15603398 -12 66 C-12.66 66 -13.32 66 -14 66 C-13.95875 66.9075 -13.9175 67.815 -13.875 68.75 C-14.00178691 72.04645974 -14.47051859 73.19595074 -16 76 C-16.68255989 78.32873375 -17.35050775 80.66182791 -18 83 C-18.33 83.66 -18.66 84.32 -19 85 C-21.12963867 85.59423828 -21.12963867 85.59423828 -23.91796875 86.0703125 C-25.42907227 86.33134766 -25.42907227 86.33134766 -26.97070312 86.59765625 C-28.56301758 86.85869141 -28.56301758 86.85869141 -30.1875 87.125 C-31.22970703 87.30675781 -32.27191406 87.48851563 -33.34570312 87.67578125 C-38.27015337 88.50852363 -42.98556997 89.25981503 -48 89 C-47.67 88.401875 -47.34 87.80375 -47 87.1875 C-45.79212012 84.94613529 -45.79212012 84.94613529 -46 82 C-45.71601981 80.57734194 -45.40040675 79.16082236 -45.0625 77.75 C-44.38006011 74.82457585 -43.88017736 72.05639672 -43.5 69.0625 C-43 66 -43 66 -41 64 C-41.33 63.34 -41.66 62.68 -42 62 C-41.69235564 58.73896976 -41.34082514 55.81682988 -40.07421875 52.78125 C-38.69289372 49.20487394 -37.9183256 45.55182911 -37.125 41.8125 C-36.77760468 40.20697477 -36.42994039 38.60150772 -36.08203125 36.99609375 C-35.90494629 36.17351074 -35.72786133 35.35092773 -35.54541016 34.50341797 C-35.00683376 32.03136677 -34.45027075 29.56412394 -33.88671875 27.09765625 C-33.7067334 26.30576904 -33.52674805 25.51388184 -33.34130859 24.69799805 C-32.99915797 23.19496793 -32.6545916 21.69248482 -32.30712891 20.19067383 C-31.02402272 14.50636837 -30 8.84840644 -30 3 C-26.87696198 2.48722171 -23.75133678 1.99223175 -20.625 1.5 C-19.75488281 1.35691406 -18.88476562 1.21382812 -17.98828125 1.06640625 C-11.94435724 0.12624029 -6.11299899 -0.17771303 0 0 Z " fill="#79EBC8" transform="translate(160,13)"/>
<path d="M0 0 C0.99 0.99 0.99 0.99 2 2 C1.59764718 10.03729582 -1.5823207 18.39367227 -3.72143555 26.15161133 C-4.11738777 27.59918387 -4.50599927 29.0487832 -4.88745117 30.50024414 C-5.44642179 32.62605168 -6.02729925 34.74478165 -6.61328125 36.86328125 C-7.12048706 38.73947144 -7.12048706 38.73947144 -7.63793945 40.65356445 C-9.20792039 44.51083792 -10.7301511 46.43448468 -14 49 C-16.88964844 49.96313477 -16.88964844 49.96313477 -20.109375 50.44140625 C-21.32375244 50.63065674 -22.53812988 50.81990723 -23.78930664 51.01489258 C-25.74984985 51.28595825 -25.74984985 51.28595825 -27.75 51.5625 C-29.11664243 51.76526137 -30.48309524 51.96930453 -31.84936523 52.17456055 C-36.2278948 52.82151078 -40.61243689 53.41781802 -45 54 C-45.75524963 54.10030518 -46.51049927 54.20061035 -47.28863525 54.30395508 C-52.54366829 54.99739238 -57.80155691 55.66547041 -63.0625 56.3125 C-64.12627869 56.44339523 -64.12627869 56.44339523 -65.21154785 56.57693481 C-67.23552227 56.82326335 -69.26011035 57.06343773 -71.28515625 57.30078125 C-72.43894775 57.43653564 -73.59273926 57.57229004 -74.78149414 57.7121582 C-77.87494949 57.98881631 -80.89623645 58.05256634 -84 58 C-83.04882866 56.8274869 -82.08882991 55.66212985 -81.125 54.5 C-80.32449219 53.52546875 -80.32449219 53.52546875 -79.5078125 52.53125 C-79.01023437 52.0259375 -78.51265625 51.520625 -78 51 C-77.34 51 -76.68 51 -76 51 C-75.73832031 50.40058594 -75.47664063 49.80117187 -75.20703125 49.18359375 C-73.92779812 46.86938236 -72.73749558 45.70340555 -70.6875 44.0625 C-68.53090724 42.28752654 -66.54311674 40.54311674 -64.5625 38.5625 C-61.78885547 35.78885547 -58.87287676 33.24957075 -55.8984375 30.6953125 C-53.84453883 28.92158226 -53.84453883 28.92158226 -51.625 26.375 C-48.41657581 23.47214001 -45.06569503 21.99997909 -41.109375 20.30859375 C-38.81859326 19.18632914 -38.81859326 19.18632914 -38.203125 16.84765625 C-38.13609375 16.23792969 -38.0690625 15.62820312 -38 15 C-37.34 15 -36.68 15 -36 15 C-35.67 14.01 -35.34 13.02 -35 12 C-32.31690056 10.69678027 -29.60119362 9.87729035 -26.75 9 C-23.86786388 8.30884829 -23.86786388 8.30884829 -23 6 C-20.671875 5.62109375 -20.671875 5.62109375 -17.75 5.4375 C-10.75340728 5.29653242 -10.75340728 5.29653242 -5 2 C-4.01 1.67 -3.02 1.34 -2 1 C-1.01 1.495 -1.01 1.495 0 2 C0 1.34 0 0.68 0 0 Z " fill="#37AD8F" transform="translate(175,114)"/>
<path d="M0 0 C0.79921875 0.00902344 1.5984375 0.01804687 2.421875 0.02734375 C3.02515625 0.03894531 3.6284375 0.05054687 4.25 0.0625 C3.80037804 2.02285175 3.34001752 3.98074309 2.875 5.9375 C2.49214844 7.57332031 2.49214844 7.57332031 2.1015625 9.2421875 C1.25 12.0625 1.25 12.0625 -0.75 14.0625 C-3.75 15.0625 -3.75 15.0625 -6.75 14.0625 C-7.08 14.7225 -7.41 15.3825 -7.75 16.0625 C-10.72 16.0625 -13.69 16.0625 -16.75 16.0625 C-16.75 15.0725 -16.75 14.0825 -16.75 13.0625 C-17.74 13.0625 -18.73 13.0625 -19.75 13.0625 C-19.75 12.4025 -19.75 11.7425 -19.75 11.0625 C-20.41 11.3925 -21.07 11.7225 -21.75 12.0625 C-23.38354201 12.32866237 -25.02462582 12.54930472 -26.66796875 12.74609375 C-28.16928345 12.92893921 -28.16928345 12.92893921 -29.70092773 13.11547852 C-30.76899658 13.24237061 -31.83706543 13.3692627 -32.9375 13.5 C-35.11981379 13.76804913 -37.30210547 14.03627828 -39.484375 14.3046875 C-43.2020934 14.7567818 -46.92065394 15.19970833 -50.640625 15.6328125 C-51.98961038 15.79665245 -53.33857113 15.9606954 -54.6875 16.125 C-55.85152344 16.26035156 -57.01554687 16.39570312 -58.21484375 16.53515625 C-59.05144531 16.70917969 -59.88804688 16.88320312 -60.75 17.0625 C-61.08 17.7225 -61.41 18.3825 -61.75 19.0625 C-63.40291755 19.53476216 -65.05796993 20.00074992 -66.72265625 20.4296875 C-68.88583323 21.10489881 -70.74618823 22.00786223 -72.75 23.0625 C-75.3747224 24.44393284 -77.8149977 25.44734603 -80.6875 26.1875 C-81.698125 26.47625 -82.70875 26.765 -83.75 27.0625 C-84.08 27.7225 -84.41 28.3825 -84.75 29.0625 C-86.07 29.0625 -87.39 29.0625 -88.75 29.0625 C-90.42225729 29.36654678 -92.09080104 29.69378912 -93.75 30.0625 C-93.75 30.7225 -93.75 31.3825 -93.75 32.0625 C-94.41 32.0625 -95.07 32.0625 -95.75 32.0625 C-95.75 32.7225 -95.75 33.3825 -95.75 34.0625 C-97.3125 35.75 -97.3125 35.75 -99.75 37.0625 C-102.0900417 36.78008117 -104.42504723 36.44999213 -106.75 36.0625 C-107.41 36.7225 -108.07 37.3825 -108.75 38.0625 C-109.41 37.4025 -110.07 36.7425 -110.75 36.0625 C-111.245 36.5575 -111.245 36.5575 -111.75 37.0625 C-113.41617115 37.10313832 -115.08388095 37.105221 -116.75 37.0625 C-117.018125 35.928125 -117.28625 34.79375 -117.5625 33.625 C-117.954375 32.449375 -118.34625 31.27375 -118.75 30.0625 C-119.74 29.7325 -120.73 29.4025 -121.75 29.0625 C-121.42 27.4125 -121.09 25.7625 -120.75 24.0625 C-121.41 24.0625 -122.07 24.0625 -122.75 24.0625 C-122.75 22.4125 -122.75 20.7625 -122.75 19.0625 C-117.143973 17.31575998 -111.58517843 16.2880087 -105.78515625 15.40625 C-104.83418564 15.25845093 -103.88321503 15.11065186 -102.90342712 14.95837402 C-100.89419688 14.64705313 -98.88463111 14.3378909 -96.87475586 14.03076172 C-93.85253325 13.56862164 -90.83148491 13.099362 -87.81054688 12.62890625 C-77.95266389 11.10323983 -68.09890098 9.66331002 -58.18994141 8.51123047 C-54.44789367 8.0230911 -50.77264671 7.37703566 -47.0625 6.6875 C-37.60496027 4.94256647 -28.08116352 3.68819267 -18.55004883 2.42041016 C-17.3411499 2.25847168 -16.13225098 2.0965332 -14.88671875 1.9296875 C-13.25802856 1.71481689 -13.25802856 1.71481689 -11.59643555 1.49560547 C-1.61135111 -0.02369634 -1.61135111 -0.02369634 0 0 Z " fill="#177668" transform="translate(179.75,91.9375)"/>
<path d="M0 0 C-0.54981916 6.04801071 -1.90429574 11.30601106 -4 17 C-5.485 16.505 -5.485 16.505 -7 16 C-9.99755541 15.9039942 -9.99755541 15.9039942 -12.875 16.5625 C-16 17 -16 17 -18.25 16.5 C-21.6578543 15.88039013 -24.56330584 16.28036301 -27.98828125 16.6796875 C-31.50956119 17.05419457 -35.02826189 17.28021789 -38.5625 17.5 C-43.35810841 17.8042531 -48.11305947 18.17156014 -52.875 18.81640625 C-55 19 -55 19 -58.23046875 18.96875 C-62.32688902 19.00270996 -66.25444237 19.42906587 -70.3125 19.9375 C-81.16838774 21.22373725 -92.06440785 22 -103 22 C-103 17.71 -103 13.42 -103 9 C-99.58959825 8.31791965 -96.5380099 7.80912113 -93.11328125 7.53515625 C-92.18467285 7.45845703 -91.25606445 7.38175781 -90.29931641 7.30273438 C-89.31366699 7.22345703 -88.32801758 7.14417969 -87.3125 7.0625 C-80.23604118 6.4732566 -73.17711325 5.83168677 -66.125 5 C-53.36309337 3.51155126 -40.53923413 2.61841576 -27.7265625 1.6875 C-26.59992188 1.605 -25.47328125 1.5225 -24.3125 1.4375 C-23.40113281 1.37433594 -22.48976563 1.31117188 -21.55078125 1.24609375 C-17.49341044 0.85464756 -13.51049764 0.09116029 -9.5 -0.625 C-6.05160632 -0.99447075 -3.3699973 -0.7397555 0 0 Z " fill="#137165" transform="translate(103,205)"/>
<path d="M0 0 C1.1875 1.6875 1.1875 1.6875 2 4 C1.28263672 5.12341797 1.28263672 5.12341797 0.55078125 6.26953125 C-1.29774428 9.52423993 -1.22623791 11.3047808 -1 15 C-0.70672239 19.79020093 -1.3891816 21.9972068 -4 26 C-3.60061233 28.09821215 -3.60061233 28.09821215 -3 30 C-3.66 30.99 -4.32 31.98 -5 33 C-4.67 33.33 -4.34 33.66 -4 34 C-5 37 -5 37 -7 39 C-7.165 39.99 -7.33 40.98 -7.5 42 C-8 45 -8 45 -10 47 C-9.67 47.66 -9.34 48.32 -9 49 C-9.99 49.495 -9.99 49.495 -11 50 C-10.67 50.99 -10.34 51.98 -10 53 C-11.9375 55.6875 -11.9375 55.6875 -14 58 C-13.34 59.65 -12.68 61.3 -12 63 C-12.66 63 -13.32 63 -14 63 C-14 64.32 -14 65.64 -14 67 C-14.66 67 -15.32 67 -16 67 C-16 67.99 -16 68.98 -16 70 C-15.34 70.33 -14.68 70.66 -14 71 C-15.98 71.99 -15.98 71.99 -18 73 C-16.515 73.99 -16.515 73.99 -15 75 C-15.61875 75.763125 -16.2375 76.52625 -16.875 77.3125 C-19.05597052 79.99625809 -19.05597052 79.99625809 -21 83 C-22.72797144 83.97809704 -24.4568813 84.95467931 -26.1953125 85.9140625 C-31.84626371 89.31441842 -34.41767633 94.18616515 -37 100 C-38.27336236 96.17991291 -37.33712004 93.62951843 -36.296875 89.88916016 C-36.10344009 89.16833252 -35.91000519 88.44750488 -35.71070862 87.70483398 C-35.06614053 85.3136989 -34.40878519 82.92631691 -33.75 80.5390625 C-33.29423143 78.87063204 -32.83875073 77.20212291 -32.38354492 75.53353882 C-31.42429867 72.02637479 -30.4581347 68.52119937 -29.48779297 65.01708984 C-28.25533546 60.56245331 -27.0451 56.10212863 -25.84091187 51.63978004 C-24.90471856 48.1842267 -23.95378354 44.73285185 -22.99890137 41.28242111 C-22.54737634 39.64225275 -22.10086075 38.00069566 -21.65979004 36.35768509 C-11.87077587 0 -11.87077587 0 0 0 Z " fill="#6FE6DA" transform="translate(60,33)"/>
<path d="M0 0 C-0.33 0.66 -0.66 1.32 -1 2 C-0.34 2.33 0.32 2.66 1 3 C0.67 3.33 0.34 3.66 0 4 C0.66 4.66 1.32 5.32 2 6 C2 6.66 2 7.32 2 8 C3.8519499 12.90910821 3.8519499 12.90910821 7 17 C9.47266765 16.65555119 9.47266765 16.65555119 12 16 C15.41099168 16 18.63088314 16.49145406 22 17 C21.33333333 18.33333333 20.66666667 19.66666667 20 21 C21.32 20.67 22.64 20.34 24 20 C24.66 21.65 25.32 23.3 26 25 C24.68 25.33 23.36 25.66 22 26 C22.061875 27.27875 22.12375 28.5575 22.1875 29.875 C22.29296875 32.0546875 22.29296875 32.0546875 22 34 C21.01 34.66 20.02 35.32 19 36 C18.90754997 37.46225016 18.90754997 37.46225016 21 40 C20 42 20 42 18 44 C18.66 44.99 19.32 45.98 20 47 C19.01 47.99 18.02 48.98 17 50 C15.02 49.34 13.04 48.68 11 48 C10.34 48.94875 9.68 49.8975 9 50.875 C5.78896236 54.74471203 2.90921375 55.29868375 -2 56 C-4.24609375 55.53515625 -4.24609375 55.53515625 -6 55 C-6 54.01 -6 53.02 -6 52 C-6.33 51.34 -6.66 50.68 -7 50 C-6.67 49.01 -6.34 48.02 -6 47 C-5.34 47 -4.68 47 -4 47 C-2.53273202 43.18510326 -3.56663581 40.70988378 -5 37 C-4.38125 37.20625 -3.7625 37.4125 -3.125 37.625 C-2.073125 37.810625 -2.073125 37.810625 -1 38 C-0.34 37.34 0.32 36.68 1 36 C0.34 34.02 -0.32 32.04 -1 30 C-1.33 31.98 -1.66 33.96 -2 36 C-4.83374881 32.79663178 -5.5205537 30.21912747 -6 26 C-5.34 25.67 -4.68 25.34 -4 25 C-4.33 24.34 -4.66 23.68 -5 23 C-6 20 -6 20 -5 17 C-5.825 16.01 -6.65 15.02 -7.5 14 C-8.325 13.01 -9.15 12.02 -10 11 C-9.67 10.01 -9.34 9.02 -9 8 C-9.40832732 5.75419972 -9.97787049 4.04425902 -11 2 C-10.21625 1.690625 -9.4325 1.38125 -8.625 1.0625 C-3.44594595 -1.03378378 -3.44594595 -1.03378378 0 0 Z M-7 56 C-6.34 56 -5.68 56 -5 56 C-5 56.66 -5 57.32 -5 58 C-5.66 58 -6.32 58 -7 58 C-7 57.34 -7 56.68 -7 56 Z " fill="#2F9682" transform="translate(58,111)"/>
<path d="M0 0 C1.69140677 5.07422031 -0.62948894 9.89221029 -2.06787109 14.91455078 C-2.61971473 16.85640197 -3.14441329 18.80426666 -3.66796875 20.75390625 C-4.19197266 22.60435547 -4.19197266 22.60435547 -4.7265625 24.4921875 C-5.04189941 25.61995605 -5.35723633 26.74772461 -5.68212891 27.90966797 C-7.2615326 31.61327893 -8.83658256 33.51132657 -12 36 C-15.20703125 37.01074219 -15.20703125 37.01074219 -18.8125 37.546875 C-19.4626709 37.64840881 -20.1128418 37.74994263 -20.78271484 37.85455322 C-22.85276892 38.17235183 -24.92575141 38.46100901 -27 38.75 C-28.36095014 38.95785538 -29.72163169 39.16747735 -31.08203125 39.37890625 C-39.36119854 40.63617958 -47.63946605 41.48820361 -56 42 C-54.515 41.505 -54.515 41.505 -53 41 C-52.67 40.01 -52.34 39.02 -52 38 C-50.5705643 36.80326313 -49.13695144 35.61090185 -47.67578125 34.453125 C-45.9105927 32.92247199 -44.48465201 31.30195231 -43 29.5 C-40.26119668 26.20622864 -37.42995959 23.57246969 -34 21 C-33.34 21 -32.68 21 -32 21 C-32 20.34 -32 19.68 -32 19 C-31.34 19 -30.68 19 -30 19 C-30 18.34 -30 17.68 -30 17 C-29.34 17 -28.68 17 -28 17 C-28 16.34 -28 15.68 -28 15 C-23.08960387 10.30309935 -15.64111265 7.68113976 -9 7 C-8.67 6.01 -8.34 5.02 -8 4 C-5.46118772 1.72382347 -3.35369486 0.59887408 0 0 Z " fill="#58C091" transform="translate(173,127)"/>
<path d="M0 0 C2.03833424 1.2739589 4.03852126 2.61061923 6 4 C6 4.66 6 5.32 6 6 C9.30567489 6.85387105 9.30567489 6.85387105 13 7 C15.46172153 5.207809 15.46172153 5.207809 17 3 C17.33 3.33 17.66 3.66 18 4 C18.66 3.67 19.32 3.34 20 3 C20 3.66 20 4.32 20 5 C20.556875 5.20625 21.11375 5.4125 21.6875 5.625 C24.92501302 7.55000774 26.68231141 10.03850902 29 13 C28.01 13.99 27.02 14.98 26 16 C26.37125 16.886875 26.7425 17.77375 27.125 18.6875 C28 22 28 22 27.421875 24.6171875 C26 27 26 27 23.3828125 27.93359375 C22.30773438 28.09988281 21.23265625 28.26617187 20.125 28.4375 C8.73488935 30.69035061 -2.12961196 35.86164157 -8.8203125 45.66796875 C-10.28378104 48.08099014 -11.67631453 50.50806183 -13 53 C-14.37556859 50.24886282 -13.64719439 49.0332825 -12.82836914 46.09130859 C-12.54800308 45.07040131 -12.26763702 44.04949402 -11.97877502 42.99765015 C-11.66738083 41.89240997 -11.35598663 40.7871698 -11.03515625 39.6484375 C-10.72299667 38.5192691 -10.4108371 37.39010071 -10.08921814 36.22671509 C-9.08703192 32.60757288 -8.0748824 28.99130182 -7.0625 25.375 C-6.38280733 22.92726546 -5.70376229 20.47935098 -5.02539062 18.03125 C-3.35777996 12.01872241 -1.68197299 6.00852461 0 0 Z " fill="#429D92" transform="translate(16,153)"/>
<path d="M0 0 C2.97 0.495 2.97 0.495 6 1 C5.01 1.495 5.01 1.495 4 2 C6.75924185 3.80411967 7.88972103 4.0127245 11.25 3.625 C12.1575 3.41875 13.065 3.2125 14 3 C14.33 3.99 14.66 4.98 15 6 C15.66 6.33 16.32 6.66 17 7 C17.33 5.68 17.66 4.36 18 3 C18.38218767 4.65614657 18.71395102 6.32457024 19 8 C18.67 8.33 18.34 8.66 18 9 C20.39068734 10.10636395 20.39068734 10.10636395 23 11 C23.66 10.67 24.32 10.34 25 10 C25.99 10.66 26.98 11.32 28 12 C28.66 11.34 29.32 10.68 30 10 C30.66 10.66 31.32 11.32 32 12 C32.99 11.34 33.98 10.68 35 10 C35.66 11.98 36.32 13.96 37 16 C36.34 15.67 35.68 15.34 35 15 C34.67 15.66 34.34 16.32 34 17 C33.34 17 32.68 17 32 17 C32.52268466 19.76276177 33.10869587 22.3260876 34 25 C41.52660853 23.95063485 41.52660853 23.95063485 47.3125 19.375 C47.869375 18.59125 48.42625 17.8075 49 17 C50.32 17.66 51.64 18.32 53 19 C53 20.32 53 21.64 53 23 C54.91666921 25.25065102 54.91666921 25.25065102 57 27 C56.01 27.33 55.02 27.66 54 28 C54.495 29.485 54.495 29.485 55 31 C51.19828886 34.4996915 48.48801605 35.61340434 43.38671875 36.265625 C41.5159668 36.51699219 41.5159668 36.51699219 39.60742188 36.7734375 C38.31384766 36.93070313 37.02027344 37.08796875 35.6875 37.25 C34.36113219 37.42298337 33.03495668 37.59744808 31.70898438 37.7734375 C28.47424906 38.19689376 25.23833259 38.60516655 22 39 C22.185625 38.21625 22.37125 37.4325 22.5625 36.625 C23.25962266 34.02910225 23.25962266 34.02910225 22 32 C22.33 31.01 22.66 30.02 23 29 C22.34 28.67 21.68 28.34 21 28 C21.99 27.67 22.98 27.34 24 27 C22.23915938 23.0381086 19.9706445 18.98532225 16 17 C15.67 16.67 15.34 16.34 15 16 C12.50638429 17.20381448 10.31856917 18.45428722 8 20 C3.99856287 19.55094092 1.30723991 17.49053915 -1.640625 14.8828125 C-3.36344545 12.49660717 -3.34958575 11.27456607 -3.0625 8.375 C-2.50263649 5.27672623 -1.49528726 2.76534296 0 0 Z M31 26 C31 26.66 31 27.32 31 28 C31.66 28 32.32 28 33 28 C33 27.34 33 26.68 33 26 C32.34 26 31.68 26 31 26 Z " fill="#3C9687" transform="translate(20,141)"/>
<path d="M0 0 C-0.495 0.70125 -0.99 1.4025 -1.5 2.125 C-3.1936681 5.37119719 -3.25162315 7.39340156 -3 11 C-3.66 11 -4.32 11 -5 11 C-5.68707555 13.49064888 -6 15.37886292 -6 18 C-7.38244343 29.12460358 -7.38244343 29.12460358 -9.6875 34.0625 C-11.38457434 36.9724847 -11.38457434 36.9724847 -10 40 C-10.66 40.66 -11.32 41.32 -12 42 C-12 42.99 -12 43.98 -12 45 C-12.72123187 46.88484723 -13.44392597 48.76915453 -14.17578125 50.64990234 C-15.67967196 54.93795092 -16.54761442 59.37565608 -17.5 63.8125 C-19.1442277 71.27137679 -20.84306374 78.66992392 -23 86 C-24.98 86 -26.96 86 -29 86 C-29 83 -29 83 -28 82 C-27.45562288 78.54617875 -27.03357777 75.0823374 -26.59765625 71.61328125 C-26.03436458 68.20775971 -25.16682149 65.23969755 -24 62 C-23.47103949 60.29416562 -22.949709 58.58593895 -22.4375 56.875 C-22.18871094 56.04742187 -21.93992187 55.21984375 -21.68359375 54.3671875 C-20.59322902 50.59141022 -19.86547119 47.11375928 -19.5625 43.1875 C-19.16776369 38.88996762 -18.33592196 35.09682735 -17 31 C-16.34 31 -15.68 31 -15 31 C-15.350625 30.4225 -15.70125 29.845 -16.0625 29.25 C-17.17253823 26.58590824 -16.8645099 25.67998068 -16 23 C-15.84188612 19.94729537 -15.84188612 19.94729537 -17 17 C-16.34 16.01 -15.68 15.02 -15 14 C-15 13.01 -15 12.02 -15 11 C-14.33333333 9.66666667 -13.66666667 8.33333333 -13 7 C-12.62331656 5.34259285 -12.27942455 3.67654729 -12 2 C-7.8803623 0.70756464 -4.33168317 -0.26252625 0 0 Z " fill="#8AEEDB" transform="translate(88,23)"/>
<path d="M0 0 C-0.28797019 1.34386088 -0.63215869 2.6757713 -1 4 C-1.2784375 5.051875 -1.2784375 5.051875 -1.5625 6.125 C-3.89615006 9.16889138 -7.33682764 9.41999771 -11 10 C-11.66 10 -12.32 10 -13 10 C-13.33 10.66 -13.66 11.32 -14 12 C-16.96364941 13.61067903 -19.7987287 14.93290957 -23 16 C-23 16.66 -23 17.32 -23 18 C-23.66 18 -24.32 18 -25 18 C-25 18.66 -25 19.32 -25 20 C-25.66 20 -26.32 20 -27 20 C-27 20.66 -27 21.32 -27 22 C-27.99 22.66 -28.98 23.32 -30 24 C-30.66 24.99 -31.32 25.98 -32 27 C-33.65788785 28.34423339 -35.32576317 29.67618483 -37 31 C-37.825 31.825 -38.65 32.65 -39.5 33.5 C-42 36 -42 36 -44.75 38.1875 C-47.07487388 39.80309077 -47.07487388 39.80309077 -48 42 C-51.25746227 44.13677571 -53.91326378 44.21635086 -57.75 44.125 C-59.22726563 44.09792969 -59.22726563 44.09792969 -60.734375 44.0703125 C-61.48203125 44.04710937 -62.2296875 44.02390625 -63 44 C-61.4434896 40.50338421 -59.59506121 38.73191707 -56.578125 36.359375 C-54.97236608 34.97619652 -53.74116537 33.54171142 -52.4375 31.875 C-50.08791825 29.10369845 -48.13178998 27.73988332 -45 26 C-44.67 25.34 -44.34 24.68 -44 24 C-43.34 24 -42.68 24 -42 24 C-42 23.34 -42 22.68 -42 22 C-37.52941176 18 -37.52941176 18 -35 18 C-34.67 17.01 -34.34 16.02 -34 15 C-31.40617861 12.67450496 -29.34206476 11.77981511 -26 11 C-25.34 10.34 -24.68 9.68 -24 9 C-21 7 -21 7 -17 7 C-16.773125 6.36449219 -16.54625 5.72898438 -16.3125 5.07421875 C-15 3 -15 3 -12.6875 2.20703125 C-11.3571875 2.01173828 -11.3571875 2.01173828 -10 1.8125 C-6.51756408 1.27090023 -3.45652487 0 0 0 Z " fill="#48B68F" transform="translate(168,126)"/>
<path d="M0 0 C0.66 0.33 1.32 0.66 2 1 C0.78222815 9.1291839 -0.88481975 17.00544228 -3.046875 24.93359375 C-3.34055969 26.01455826 -3.63424438 27.09552277 -3.93682861 28.20924377 C-4.55524198 30.47144405 -5.17725076 32.73266432 -5.80273438 34.99291992 C-6.75286527 38.44791909 -7.67322463 41.9100598 -8.59375 45.37304688 C-9.20130218 47.5812315 -9.81061559 49.78893247 -10.421875 51.99609375 C-10.69086609 53.02633163 -10.95985718 54.05656952 -11.23699951 55.11802673 C-12.98464853 61.26734218 -14.51568592 64.55782449 -20 68 C-22.5546875 68.48828125 -22.5546875 68.48828125 -24.875 68.3125 C-25.65617188 68.26738281 -26.43734375 68.22226563 -27.2421875 68.17578125 C-27.82226562 68.11777344 -28.40234375 68.05976562 -29 68 C-29.33 67.01 -29.66 66.02 -30 65 C-29.04701223 63.63266972 -28.04625409 62.29735507 -27 61 C-27 60.34 -27 59.68 -27 59 C-26.01 58.505 -26.01 58.505 -25 58 C-24.66322859 56.33402464 -24.33066482 54.66719815 -24 53 C-23.07727169 50.95278062 -22.0938868 48.93218694 -21.0625 46.9375 C-20.53785156 45.91527344 -20.01320312 44.89304688 -19.47265625 43.83984375 C-18.62654061 42.20820962 -17.78027751 40.5766519 -16.93359375 38.9453125 C-15.43329758 35.81917236 -14.24508901 32.574157 -13 29.33984375 C-12 27 -12 27 -10 24 C-7.92522155 20.17862574 -7.92522155 20.17862574 -6.53125 16.0859375 C-5.93958706 13.76279038 -5.06255956 11.73998818 -4.0625 9.5625 C-2.62822824 6.4018866 -1.25339409 3.23793473 0 0 Z " fill="#99E89B" transform="translate(252,17)"/>
<path d="M0 0 C-0.33 0.66 -0.66 1.32 -1 2 C-0.34 2.33 0.32 2.66 1 3 C0.67 3.33 0.34 3.66 0 4 C0.66 4.66 1.32 5.32 2 6 C2 6.66 2 7.32 2 8 C3.8519499 12.90910821 3.8519499 12.90910821 7 17 C9.47266765 16.65555119 9.47266765 16.65555119 12 16 C15.41099168 16 18.63088314 16.49145406 22 17 C21.33333333 18.33333333 20.66666667 19.66666667 20 21 C21.32 20.67 22.64 20.34 24 20 C24.66 21.65 25.32 23.3 26 25 C24.68 25.33 23.36 25.66 22 26 C22 28.64 22 31.28 22 34 C21.01 34.495 21.01 34.495 20 35 C20 34.34 20 33.68 20 33 C18.515 32.505 18.515 32.505 17 32 C16.375 29.125 16.375 29.125 16 26 C16.66 25.34 17.32 24.68 18 24 C15.99875639 24.32578384 13.99897128 24.66055205 12 25 C10.700625 25.12375 10.700625 25.12375 9.375 25.25 C6.08825972 26.28791798 4.92065321 28.22572313 3 31 C1.68 30.67 0.36 30.34 -1 30 C-1.33 31.98 -1.66 33.96 -2 36 C-4.83374881 32.79663178 -5.5205537 30.21912747 -6 26 C-5.34 25.67 -4.68 25.34 -4 25 C-4.33 24.34 -4.66 23.68 -5 23 C-6 20 -6 20 -5 17 C-5.825 16.01 -6.65 15.02 -7.5 14 C-8.325 13.01 -9.15 12.02 -10 11 C-9.67 10.01 -9.34 9.02 -9 8 C-9.40832732 5.75419972 -9.97787049 4.04425902 -11 2 C-10.21625 1.690625 -9.4325 1.38125 -8.625 1.0625 C-3.44594595 -1.03378378 -3.44594595 -1.03378378 0 0 Z " fill="#2D8979" transform="translate(58,111)"/>
<path d="M0 0 C0 1.65 0 3.3 0 5 C-1.98 5.99 -1.98 5.99 -4 7 C-4 7.66 -4 8.32 -4 9 C1.58500567 8.80101292 1.58500567 8.80101292 6 6 C6.33 6.99 6.66 7.98 7 9 C7.66 8.67 8.32 8.34 9 8 C9.66 8.66 10.32 9.32 11 10 C10.34 10 9.68 10 9 10 C9 10.66 9 11.32 9 12 C9.99 12 10.98 12 12 12 C11.67 12.66 11.34 13.32 11 14 C8.4375 14.625 8.4375 14.625 6 15 C6 15.66 6 16.32 6 17 C5.34 17 4.68 17 4 17 C4 17.66 4 18.32 4 19 C2.4375 20.6875 2.4375 20.6875 0 22 C-2.3400417 21.71758117 -4.67504723 21.38749213 -7 21 C-7.66 21.66 -8.32 22.32 -9 23 C-9.66 22.34 -10.32 21.68 -11 21 C-11.33 21.33 -11.66 21.66 -12 22 C-13.66617115 22.04063832 -15.33388095 22.042721 -17 22 C-17.268125 20.865625 -17.53625 19.73125 -17.8125 18.5625 C-18.4003125 16.7990625 -18.4003125 16.7990625 -19 15 C-19.99 14.67 -20.98 14.34 -22 14 C-21.67 12.35 -21.34 10.7 -21 9 C-21.66 9 -22.32 9 -23 9 C-23 7.35 -23 5.7 -23 4 C-15.53856054 1.67866328 -7.85197327 -0.19842532 0 0 Z " fill="#247F6F" transform="translate(80,107)"/>
<path d="M0 0 C-0.61593296 4.81659571 -1.49231897 9.43446828 -2.75 14.125 C-3.20632812 15.89230469 -3.20632812 15.89230469 -3.671875 17.6953125 C-5.25295044 21.62940022 -6.59989374 23.45560991 -10 26 C-12.94061132 26.98332315 -15.86839216 27.41915312 -18.9375 27.8125 C-19.72318359 27.93302734 -20.50886719 28.05355469 -21.31835938 28.17773438 C-25.57652879 28.80131567 -29.68625064 29.13155897 -34 29 C-34.33 28.34 -34.66 27.68 -35 27 C-34.21625 26.38125 -33.4325 25.7625 -32.625 25.125 C-30.03162353 23.10141339 -30.03162353 23.10141339 -28 21 C-22.35294118 16.17647059 -22.35294118 16.17647059 -20 15 C-20 14.34 -20 13.68 -20 13 C-18.68 13 -17.36 13 -16 13 C-15.95875 12.236875 -15.9175 11.47375 -15.875 10.6875 C-15 8 -15 8 -11.9375 6.1875 C-10.4834375 5.5996875 -10.4834375 5.5996875 -9 5 C-9 4.34 -9 3.68 -9 3 C-2.25 0 -2.25 0 0 0 Z " fill="#67C790" transform="translate(171,137)"/>
<path d="M0 0 C2.475 0.99 2.475 0.99 5 2 C5 2.99 5 3.98 5 5 C7.475 5.99 7.475 5.99 10 7 C10 7.99 10 8.98 10 10 C9.27296875 10.14695313 8.5459375 10.29390625 7.796875 10.4453125 C-4.40382495 13.1670071 -16.54233401 18.00088869 -23.8203125 28.66796875 C-25.28378104 31.08099014 -26.67631453 33.50806183 -28 36 C-29.47816027 33.04367945 -28.43812449 31.26760781 -27.56640625 28.1171875 C-27.24736328 26.95058594 -26.92832031 25.78398437 -26.59960938 24.58203125 C-26.25736328 23.35871094 -25.91511719 22.13539063 -25.5625 20.875 C-25.05493164 19.02841797 -25.05493164 19.02841797 -24.53710938 17.14453125 C-23.69776945 14.09453546 -22.85180406 11.04653393 -22 8 C-20.88625 7.87625 -19.7725 7.7525 -18.625 7.625 C-14.96896323 7.3534187 -14.96896323 7.3534187 -13 5 C-11.68 5 -10.36 5 -9 5 C-8.525625 4.505 -8.05125 4.01 -7.5625 3.5 C-6 2 -6 2 -3.3125 1.8125 C-2.549375 1.874375 -1.78625 1.93625 -1 2 C-0.67 1.34 -0.34 0.68 0 0 Z " fill="#48A69E" transform="translate(31,170)"/>
<path d="M0 0 C1.32 0.66 2.64 1.32 4 2 C4 3.32 4 4.64 4 6 C5.91666921 8.25065102 5.91666921 8.25065102 8 10 C7.01 10.33 6.02 10.66 5 11 C5.495 12.485 5.495 12.485 6 14 C2.19828886 17.4996915 -0.51198395 18.61340434 -5.61328125 19.265625 C-6.86044922 19.43320313 -8.10761719 19.60078125 -9.39257812 19.7734375 C-10.68615234 19.93070313 -11.97972656 20.08796875 -13.3125 20.25 C-14.63886781 20.42298337 -15.96504332 20.59744808 -17.29101562 20.7734375 C-20.52575094 21.19689376 -23.76166741 21.60516655 -27 22 C-26.814375 21.21625 -26.62875 20.4325 -26.4375 19.625 C-25.74037734 17.02910225 -25.74037734 17.02910225 -27 15 C-26.67 14.01 -26.34 13.02 -26 12 C-26.66 11.67 -27.32 11.34 -28 11 C-25.08517222 10.19032562 -23.53886783 9.78154007 -20.6875 10.9375 C-20.130625 11.288125 -19.57375 11.63875 -19 12 C-18.67 11.34 -18.34 10.68 -18 10 C-17.34 10.33 -16.68 10.66 -16 11 C-15.67 10.01 -15.34 9.02 -15 8 C-14.113125 7.87625 -13.22625 7.7525 -12.3125 7.625 C-6.29620893 6.48985074 -3.59689846 5.06230154 0 0 Z " fill="#36A08C" transform="translate(69,158)"/>
<path d="M0 0 C-0.66 2.97 -1.32 5.94 -2 9 C-3.1446875 9.1546875 -3.1446875 9.1546875 -4.3125 9.3125 C-7.01767195 9.7379857 -7.01767195 9.7379857 -8.33984375 11.50390625 C-10.61018937 13.5498883 -12.23093445 13.46477026 -15.25 13.625 C-16.22453125 13.68945312 -17.1990625 13.75390625 -18.203125 13.8203125 C-19.12609375 13.87960938 -20.0490625 13.93890625 -21 14 C-24.46034817 14.38586616 -27.68195378 14.89398459 -31 16 C-31.33 16.66 -31.66 17.32 -32 18 C-33.64551962 18.71727778 -35.31422289 19.38325228 -37 20 C-37.66 20.33 -38.32 20.66 -39 21 C-37.89324887 18.08220156 -37.1892778 17.11079676 -34.4375 15.5 C-31.83486179 14.24332983 -31.83486179 14.24332983 -31.1875 11.8125 C-31.125625 11.214375 -31.06375 10.61625 -31 10 C-29.35 9.67 -27.7 9.34 -26 9 C-25.67 8.01 -25.34 7.02 -25 6 C-24.34 6 -23.68 6 -23 6 C-22.67 5.34 -22.34 4.68 -22 4 C-20.68 4 -19.36 4 -18 4 C-18 3.34 -18 2.68 -18 2 C-15.45030774 1.4172132 -13.18508381 0.99525426 -10.5625 1.0625 C-7.84546714 1.12144162 -7.84546714 1.12144162 -4.8125 -0.0625 C-2 -1 -2 -1 0 0 Z " fill="#319A84" transform="translate(180,106)"/>
<path d="M0 0 C0.66 0.66 1.32 1.32 2 2 C1.85005739 7.06276804 0.98049561 11.01950439 -2.625 14.625 C-3.40875 15.07875 -4.1925 15.5325 -5 16 C-5.81791016 15.21882812 -5.81791016 15.21882812 -6.65234375 14.421875 C-8.93244065 12.71053927 -8.93244065 12.71053927 -11.69140625 13.328125 C-12.63886719 13.63234375 -13.58632812 13.9365625 -14.5625 14.25 C-15.51253906 14.54390625 -16.46257812 14.8378125 -17.44140625 15.140625 C-18.70791016 15.56601563 -18.70791016 15.56601563 -20 16 C-20.99 16.33 -21.98 16.66 -23 17 C-23.33 17.66 -23.66 18.32 -24 19 C-26.5625 19.625 -26.5625 19.625 -29 20 C-29.66 19.01 -30.32 18.02 -31 17 C-30.505 15.515 -30.505 15.515 -30 14 C-29.01 14 -28.02 14 -27 14 C-26.34 13.34 -25.68 12.68 -25 12 C-24.030625 11.690625 -23.06125 11.38125 -22.0625 11.0625 C-19.02215639 10.00768691 -18.13165731 9.22855083 -16 7 C-14.125 6.4375 -14.125 6.4375 -12 6 C-9.00857046 4.93163231 -7.26263406 4.26263406 -5 2 C-4.01 1.67 -3.02 1.34 -2 1 C-1.34 1.33 -0.68 1.66 0 2 C0 1.34 0 0.68 0 0 Z " fill="#40AA88" transform="translate(175,114)"/>
<path d="M0 0 C0.66 0.66 1.32 1.32 2 2 C1.45877854 4.23442825 0.89105942 6.46244736 0.3125 8.6875 C-0.00074219 9.92886719 -0.31398437 11.17023438 -0.63671875 12.44921875 C-2.16004945 16.41686233 -3.71205949 18.34302858 -7 21 C-10.03580632 22.23703132 -12.99474577 22.10533229 -16.25 22.0625 C-17.14203125 22.05347656 -18.0340625 22.04445312 -18.953125 22.03515625 C-19.62859375 22.02355469 -20.3040625 22.01195312 -21 22 C-16.25 16.125 -16.25 16.125 -14 15 C-13.01 14.34 -12.02 13.68 -11 13 C-11 12.01 -11 11.02 -11 10 C-10.34 9.67 -9.68 9.34 -9 9 C-5.41459674 6.22131248 -2.52856722 3.79285082 0 0 Z " fill="#71CD92" transform="translate(168,142)"/>
<path d="M0 0 C0.5775 0.185625 1.155 0.37125 1.75 0.5625 C4.20692525 1.04023546 5.64397534 0.75729364 8 0 C8 0.66 8 1.32 8 2 C8.66 2.33 9.32 2.66 10 3 C9.25 5.4375 9.25 5.4375 8 8 C5.07083439 9.32284898 4.12177395 9.04059132 1 8 C0.67 8.66 0.34 9.32 0 10 C-2.97 10 -5.94 10 -9 10 C-9 9.01 -9 8.02 -9 7 C-9.99 7 -10.98 7 -12 7 C-12 6.34 -12 5.68 -12 5 C-12.66 5 -13.32 5 -14 5 C-13.67 4.34 -13.34 3.68 -13 3 C-10.03 3.495 -10.03 3.495 -7 4 C-6.67 3.34 -6.34 2.68 -6 2 C-5.01 1.67 -4.02 1.34 -3 1 C-2.34 1.33 -1.68 1.66 -1 2 C-0.67 1.34 -0.34 0.68 0 0 Z " fill="#247E6F" transform="translate(172,98)"/>
<path d="M0 0 C1.32 0 2.64 0 4 0 C4 0.66 4 1.32 4 2 C9.94 1.505 9.94 1.505 16 1 C15.67 1.66 15.34 2.32 15 3 C12 4 12 4 9 3 C8.67 3.66 8.34 4.32 8 5 C5.03 5 2.06 5 -1 5 C-0.67 3.35 -0.34 1.7 0 0 Z " fill="#268676" transform="translate(164,103)"/>
<path d="M0 0 C1.32 0 2.64 0 4 0 C2.95125002 2.62187494 2.35068687 3.79371361 -0.125 5.25 C-0.74375 5.4975 -1.3625 5.745 -2 6 C-1.49396008 3.83125748 -1.00016187 2.00032373 0 0 Z " fill="#48B28C" transform="translate(171,124)"/>
</svg>
