<?xml version="1.0" encoding="UTF-8"?>
<svg id="Layer_1" data-name="Layer 1" xmlns="http://www.w3.org/2000/svg" viewBox="0 0 128 128">
  <defs>
    <style>
      .cls-1 {
        fill: #000;
        stroke-width: 0px;
      }
    </style>
  </defs>
  <path class="cls-1" d="M84.25,15.44c-4.92,6.75-9.52,13.33-14.51,19.61-.83,1.04-3.41,1.24-5.06,1-16.4-2.37-31.31,6.13-36.18,20.8-4.27,12.85-.25,26.4,10.29,34.69,10.63,8.36,25.66,9.31,37.03,2.03,9.44-6.04,14.46-14.74,14.86-26.08.05-1.45,1-3.66,2.14-4.16,7.16-3.2,14.5-6.02,21.79-8.97,6.26,19.88-2.73,46.97-24.58,60.68-23.82,14.94-55.76,10.61-74.29-10.06C-3,84.09-4.05,53.49,13.22,31.56,29.41,11.01,62.27,3.39,84.25,15.44Z"/>
  <path class="cls-1" d="M61.05,63.5c2.8-3.84,5.58-7.68,8.4-11.5,10.6-14.36,21.2-28.72,31.83-43.06,4.34-5.86,5.59-5.83,9.72.3,5.23,7.78,10.3,15.68,15.61,23.4,2.15,3.13,2,4.97-1.76,6.52-19.85,8.15-39.64,16.45-59.48,24.64-1.12.46-2.43.49-3.65.72-.22-.34-.45-.68-.67-1.01Z"/>
</svg>