<?xml version="1.0" encoding="UTF-8"?>
<svg version="1.1" xmlns="http://www.w3.org/2000/svg" width="268" height="255">
<path d="M0 0 C1.02058257 0.97898479 2.02450008 1.97608599 3 3 C-10.35431252 21.23121252 -10.35431252 21.23121252 -16.6875 29.5625 C-17.45449219 30.57441406 -18.22148437 31.58632812 -19.01171875 32.62890625 C-21 35 -21 35 -24 37 C-26.0144043 37.16357422 -26.0144043 37.16357422 -28.32421875 37.0546875 C-29.18031738 37.02713379 -30.03641602 36.99958008 -30.91845703 36.97119141 C-31.83224121 36.93944824 -32.74602539 36.90770508 -33.6875 36.875 C-50.16428771 36.61220781 -64.77805575 40.07674776 -77.25 51.5 C-86.53806264 61.27612962 -91.40616052 73.8896095 -91.3125 87.3125 C-91.30686035 88.15554687 -91.3012207 88.99859375 -91.29541016 89.8671875 C-91.0378239 103.06784575 -85.88920908 114.20636558 -77 124 C-63.09395766 135.39779067 -48.82731295 139.37310199 -31 138 C-17.9548758 135.70604808 -6.15368337 128.44162842 2 118 C7.69825945 108.49926914 11.00068853 99.53463868 11.55859375 88.39453125 C12.12542049 85.3196216 13.16450449 83.53805402 15 81 C17.56860352 79.48608398 17.56860352 79.48608398 20.62890625 78.24609375 C22.30629883 77.55290039 22.30629883 77.55290039 24.01757812 76.84570312 C25.18740234 76.38099609 26.35722656 75.91628906 27.5625 75.4375 C28.70525391 74.96892578 29.84800781 74.50035156 31.02539062 74.01757812 C34.34356616 72.66109127 37.67100791 71.32967051 41 70 C41.98983887 69.59410645 42.97967773 69.18821289 43.99951172 68.77001953 C45.34360107 68.22063721 45.34360107 68.22063721 46.71484375 67.66015625 C47.49851318 67.33797119 48.28218262 67.01578613 49.08959961 66.68383789 C51 66 51 66 53 66 C60.36114529 87.16329269 55.85721907 110.72164663 46.3671875 130.3828125 C42.85384876 137.17316674 38.9606975 143.19337304 34 149 C33.35675781 149.79921875 32.71351563 150.5984375 32.05078125 151.421875 C18.03061513 168.11131489 -3.56265489 178.95170265 -25 182 C-40.56086989 183.06804046 -56.13950251 183.0419545 -71 178 C-71.65097656 177.78037598 -72.30195312 177.56075195 -72.97265625 177.33447266 C-96.25850581 169.28581673 -116.03945522 152.19899384 -127 130 C-128.3979796 126.82914057 -129.66116175 123.62043362 -130.875 120.375 C-131.30449951 119.2303125 -131.30449951 119.2303125 -131.74267578 118.0625 C-140.21191374 94.18770292 -137.68537478 67.35568903 -126.9140625 44.72265625 C-114.73136586 20.38850065 -93.29932578 4.59425079 -68 -4 C-46.27474931 -10.11171887 -20.3682847 -11.07926597 0 0 Z " fill="#373736" transform="translate(172,39)"/>
<path d="M0 0 C7.61611114 2.13251112 12.54143583 12.11618213 16.71484375 18.4140625 C17.30423233 19.29855072 17.89362091 20.18303894 18.50086975 21.09432983 C19.73335253 22.94943699 20.96259951 24.80669769 22.1887207 26.66601562 C24.06805058 29.50839493 25.96811831 32.33616018 27.86914062 35.1640625 C29.06900253 36.97570601 30.26761502 38.78817777 31.46484375 40.6015625 C32.03347641 41.4423233 32.60210907 42.28308411 33.18797302 43.14932251 C35.44011995 46.60418355 37.0001456 49.17353336 37.72875977 53.26708984 C37.125 55.875 37.125 55.875 35.61987305 57.53662109 C32.23744297 59.35113148 28.75976624 60.84894276 25.20703125 62.2890625 C24.41380463 62.61607651 23.620578 62.94309052 22.80331421 63.28001404 C20.1835342 64.35867906 17.56054597 65.42930437 14.9375 66.5 C13.10237755 67.25388493 11.26750155 68.00837003 9.43286133 68.76342773 C5.60231068 70.33946874 1.77069533 71.91288316 -2.06152344 73.48486328 C-7.71653796 75.80696441 -13.36340153 78.1483536 -19.0078125 80.49609375 C-20.35940208 81.05804443 -20.35940208 81.05804443 -21.73829651 81.63134766 C-25.21950896 83.07889519 -28.70062832 84.52666477 -32.1812439 85.97564697 C-36.92257917 87.94858349 -41.66766438 89.91200029 -46.41802979 91.86309814 C-48.13675916 92.57095591 -49.85405291 93.28230499 -51.57025146 93.99627686 C-54.29733685 95.12967423 -57.02897715 96.25141396 -59.76171875 97.37109375 C-60.59967484 97.72204605 -61.43763092 98.07299835 -62.30097961 98.43458557 C-69.52078086 101.3689591 -69.52078086 101.3689591 -73.875 100.875 C-74.205 99.885 -74.535 98.895 -74.875 97.875 C-74.01733398 96.18359375 -74.01733398 96.18359375 -72.62109375 94.3125 C-71.84463501 93.25554932 -71.84463501 93.25554932 -71.05249023 92.17724609 C-70.47829346 91.41750488 -69.90409668 90.65776367 -69.3125 89.875 C-68.72476807 89.0804541 -68.13703613 88.2859082 -67.53149414 87.46728516 C-66.28431171 85.78268895 -65.03280218 84.10128908 -63.77734375 82.42285156 C-61.94270065 79.965673 -60.12449355 77.49735108 -58.3125 75.0234375 C-52.39765885 66.95122503 -46.42481405 58.9239865 -40.40942383 50.92651367 C-36.57745063 45.82627811 -32.78213949 40.6997796 -29 35.5625 C-28.4212915 34.77657471 -27.84258301 33.99064941 -27.24633789 33.1809082 C-24.17657061 29.00936907 -21.11184578 24.8341789 -18.05078125 20.65625 C-17.42478027 19.80329346 -16.7987793 18.95033691 -16.15380859 18.0715332 C-14.96107905 16.4462771 -13.76989785 14.8198831 -12.58056641 13.19213867 C-3.72637821 1.13411511 -3.72637821 1.13411511 0 0 Z " fill="#373736" transform="translate(209.875,22.125)"/>
</svg>
